<svg id="visual" viewBox="0 0 900 600" width="900" height="600" xmlns="http://www.w3.org/2000/svg" xmlns:xlink="http://www.w3.org/1999/xlink" version="1.1"><g stroke-width="1" stroke-linejoin="bevel"><path d="M412.7 352L400.7 236L292.1 262Z" fill="#e7fbf5" stroke="#e7fbf5"></path><path d="M292.1 262L260.1 366L412.7 352Z" fill="#d0f4f2" stroke="#d0f4f2"></path><path d="M400.7 236L349.7 148L292.1 262Z" fill="#b2eaf6" stroke="#b2eaf6"></path><path d="M260.1 366L363.7 467L412.7 352Z" fill="#d0f4f2" stroke="#d0f4f2"></path><path d="M412.7 352L518.3 219L400.7 236Z" fill="#eefdf7" stroke="#eefdf7"></path><path d="M400.7 236L505.3 109L349.7 148Z" fill="#e7fbf5" stroke="#e7fbf5"></path><path d="M547.3 374L518.3 219L412.7 352Z" fill="#eefdf7" stroke="#eefdf7"></path><path d="M349.7 148L236.1 138L292.1 262Z" fill="#d8f6f2" stroke="#d8f6f2"></path><path d="M292.1 262L124.6 343L260.1 366Z" fill="#d8f6f2" stroke="#d8f6f2"></path><path d="M551.3 497L547.3 374L412.7 352Z" fill="#c0eff3" stroke="#c0eff3"></path><path d="M260.1 366L274.1 507L363.7 467Z" fill="#b2eaf6" stroke="#b2eaf6"></path><path d="M90.6 502L274.1 507L260.1 366Z" fill="#b2eaf6" stroke="#b2eaf6"></path><path d="M89.6 256L124.6 343L292.1 262Z" fill="#c0eff3" stroke="#c0eff3"></path><path d="M606.9 107L505.3 109L518.3 219Z" fill="#eefdf7" stroke="#eefdf7"></path><path d="M518.3 219L505.3 109L400.7 236Z" fill="#c0eff3" stroke="#c0eff3"></path><path d="M349.7 148L231.1 0L236.1 138Z" fill="#c0eff3" stroke="#c0eff3"></path><path d="M157.6 0L153.6 144L236.1 138Z" fill="#b2eaf6" stroke="#b2eaf6"></path><path d="M236.1 138L153.6 144L292.1 262Z" fill="#d8f6f2" stroke="#d8f6f2"></path><path d="M153.6 144L89.6 256L292.1 262Z" fill="#d8f6f2" stroke="#d8f6f2"></path><path d="M475.3 600L551.3 497L363.7 467Z" fill="#f5fffa" stroke="#f5fffa"></path><path d="M363.7 467L551.3 497L412.7 352Z" fill="#d8f6f2" stroke="#d8f6f2"></path><path d="M505.3 109L382.7 0L349.7 148Z" fill="#e7fbf5" stroke="#e7fbf5"></path><path d="M634.9 444L658.9 340L547.3 374Z" fill="#b9edf4" stroke="#b9edf4"></path><path d="M547.3 374L658.9 340L518.3 219Z" fill="#c8f2f2" stroke="#c8f2f2"></path><path d="M290.1 600L398.7 600L363.7 467Z" fill="#c0eff3" stroke="#c0eff3"></path><path d="M165.6 600L290.1 600L274.1 507Z" fill="#f5fffa" stroke="#f5fffa"></path><path d="M274.1 507L290.1 600L363.7 467Z" fill="#eefdf7" stroke="#eefdf7"></path><path d="M659.9 600L634.9 444L551.3 497Z" fill="#c8f2f2" stroke="#c8f2f2"></path><path d="M551.3 497L634.9 444L547.3 374Z" fill="#b2eaf6" stroke="#b2eaf6"></path><path d="M674.9 260L606.9 107L518.3 219Z" fill="#e7fbf5" stroke="#e7fbf5"></path><path d="M505.3 109L510.3 0L382.7 0Z" fill="#b2eaf6" stroke="#b2eaf6"></path><path d="M658.9 340L674.9 260L518.3 219Z" fill="#c0eff3" stroke="#c0eff3"></path><path d="M398.7 600L475.3 600L363.7 467Z" fill="#eefdf7" stroke="#eefdf7"></path><path d="M382.7 0L231.1 0L349.7 148Z" fill="#b9edf4" stroke="#b9edf4"></path><path d="M0 269L0 323L89.6 256Z" fill="#b2eaf6" stroke="#b2eaf6"></path><path d="M606.9 107L510.3 0L505.3 109Z" fill="#abe7f8" stroke="#abe7f8"></path><path d="M0 464L90.6 502L124.6 343Z" fill="#dff9f3" stroke="#dff9f3"></path><path d="M124.6 343L90.6 502L260.1 366Z" fill="#b9edf4" stroke="#b9edf4"></path><path d="M90.6 502L165.6 600L274.1 507Z" fill="#c0eff3" stroke="#c0eff3"></path><path d="M89.6 256L0 323L124.6 343Z" fill="#e7fbf5" stroke="#e7fbf5"></path><path d="M0 269L89.6 256L0 136Z" fill="#eefdf7" stroke="#eefdf7"></path><path d="M0 136L89.6 256L153.6 144Z" fill="#abe7f8" stroke="#abe7f8"></path><path d="M231.1 0L157.6 0L236.1 138Z" fill="#f5fffa" stroke="#f5fffa"></path><path d="M634.9 444L742.4 358L658.9 340Z" fill="#d0f4f2" stroke="#d0f4f2"></path><path d="M658.9 340L742.4 358L674.9 260Z" fill="#eefdf7" stroke="#eefdf7"></path><path d="M754.4 107L638.9 0L606.9 107Z" fill="#b9edf4" stroke="#b9edf4"></path><path d="M738.4 506L742.4 358L634.9 444Z" fill="#c0eff3" stroke="#c0eff3"></path><path d="M157.6 0L0 136L153.6 144Z" fill="#c0eff3" stroke="#c0eff3"></path><path d="M0 323L0 464L124.6 343Z" fill="#eefdf7" stroke="#eefdf7"></path><path d="M90.6 502L0 600L165.6 600Z" fill="#f5fffa" stroke="#f5fffa"></path><path d="M754.4 107L606.9 107L674.9 260Z" fill="#eefdf7" stroke="#eefdf7"></path><path d="M606.9 107L638.9 0L510.3 0Z" fill="#b2eaf6" stroke="#b2eaf6"></path><path d="M475.3 600L659.9 600L551.3 497Z" fill="#c8f2f2" stroke="#c8f2f2"></path><path d="M659.9 600L738.4 506L634.9 444Z" fill="#dff9f3" stroke="#dff9f3"></path><path d="M900 254L789.4 256L900 394Z" fill="#c8f2f2" stroke="#c8f2f2"></path><path d="M742.4 358L789.4 256L674.9 260Z" fill="#f5fffa" stroke="#f5fffa"></path><path d="M789.4 256L754.4 107L674.9 260Z" fill="#d8f6f2" stroke="#d8f6f2"></path><path d="M157.6 0L0 0L0 136Z" fill="#f5fffa" stroke="#f5fffa"></path><path d="M0 464L0 600L90.6 502Z" fill="#abe7f8" stroke="#abe7f8"></path><path d="M900 0L734.4 0L754.4 107Z" fill="#c8f2f2" stroke="#c8f2f2"></path><path d="M754.4 107L734.4 0L638.9 0Z" fill="#dff9f3" stroke="#dff9f3"></path><path d="M659.9 600L761.4 600L738.4 506Z" fill="#f5fffa" stroke="#f5fffa"></path><path d="M900 394L789.4 256L742.4 358Z" fill="#c8f2f2" stroke="#c8f2f2"></path><path d="M900 394L742.4 358L900 460Z" fill="#d0f4f2" stroke="#d0f4f2"></path><path d="M789.4 256L900 102L754.4 107Z" fill="#e7fbf5" stroke="#e7fbf5"></path><path d="M900 460L742.4 358L738.4 506Z" fill="#eefdf7" stroke="#eefdf7"></path><path d="M900 600L900 460L738.4 506Z" fill="#b9edf4" stroke="#b9edf4"></path><path d="M900 254L900 102L789.4 256Z" fill="#eefdf7" stroke="#eefdf7"></path><path d="M900 102L900 0L754.4 107Z" fill="#b9edf4" stroke="#b9edf4"></path><path d="M761.4 600L900 600L738.4 506Z" fill="#c0eff3" stroke="#c0eff3"></path></g></svg>